<?xml version="1.0" encoding="UTF-8" standalone="no"?>
<!DOCTYPE svg PUBLIC "-//W3C//DTD SVG 1.1//EN"
 "http://www.w3.org/Graphics/SVG/1.1/DTD/svg11.dtd">
<!-- Generated by graphviz version 2.43.0 (0)
 -->
<!-- Pages: 1 -->
<svg width="218pt" height="260pt"
 viewBox="0.00 0.00 217.54 260.00" xmlns="http://www.w3.org/2000/svg" xmlns:xlink="http://www.w3.org/1999/xlink">
<g id="graph0" class="graph" transform="scale(1 1) rotate(0) translate(4 256)">
<polygon fill="white" stroke="transparent" points="-4,4 -4,-256 213.54,-256 213.54,4 -4,4"/>
<!-- 年齢(A) -->
<g id="node1" class="node">
<title>年齢(A)</title>
<ellipse fill="none" stroke="black" cx="49.55" cy="-234" rx="42.49" ry="18"/>
<text text-anchor="middle" x="49.55" y="-230.3" font-family="Times,serif" font-size="14.00">年齢(A)</text>
</g>
<!-- 教育水準(E) -->
<g id="node2" class="node">
<title>教育水準(E)</title>
<ellipse fill="none" stroke="black" cx="100.55" cy="-162" rx="61.99" ry="18"/>
<text text-anchor="middle" x="100.55" y="-158.3" font-family="Times,serif" font-size="14.00">教育水準(E)</text>
</g>
<!-- 年齢(A)&#45;&gt;教育水準(E) -->
<g id="edge1" class="edge">
<title>年齢(A)&#45;&gt;教育水準(E)</title>
<path fill="none" stroke="black" d="M61.63,-216.41C67.77,-207.99 75.35,-197.58 82.19,-188.2"/>
<polygon fill="black" stroke="black" points="85.13,-190.1 88.19,-179.96 79.47,-185.98 85.13,-190.1"/>
</g>
<!-- 職業(O) -->
<g id="node4" class="node">
<title>職業(O)</title>
<ellipse fill="none" stroke="black" cx="43.55" cy="-90" rx="43.59" ry="18"/>
<text text-anchor="middle" x="43.55" y="-86.3" font-family="Times,serif" font-size="14.00">職業(O)</text>
</g>
<!-- 教育水準(E)&#45;&gt;職業(O) -->
<g id="edge3" class="edge">
<title>教育水準(E)&#45;&gt;職業(O)</title>
<path fill="none" stroke="black" d="M87.04,-144.41C80.01,-135.78 71.28,-125.06 63.49,-115.5"/>
<polygon fill="black" stroke="black" points="65.99,-113.01 56.96,-107.47 60.56,-117.43 65.99,-113.01"/>
</g>
<!-- 居住地(R) -->
<g id="node5" class="node">
<title>居住地(R)</title>
<ellipse fill="none" stroke="black" cx="157.55" cy="-90" rx="51.99" ry="18"/>
<text text-anchor="middle" x="157.55" y="-86.3" font-family="Times,serif" font-size="14.00">居住地(R)</text>
</g>
<!-- 教育水準(E)&#45;&gt;居住地(R) -->
<g id="edge4" class="edge">
<title>教育水準(E)&#45;&gt;居住地(R)</title>
<path fill="none" stroke="black" d="M114.05,-144.41C121.08,-135.78 129.81,-125.06 137.6,-115.5"/>
<polygon fill="black" stroke="black" points="140.53,-117.43 144.13,-107.47 135.11,-113.01 140.53,-117.43"/>
</g>
<!-- 性別(S) -->
<g id="node3" class="node">
<title>性別(S)</title>
<ellipse fill="none" stroke="black" cx="151.55" cy="-234" rx="42.49" ry="18"/>
<text text-anchor="middle" x="151.55" y="-230.3" font-family="Times,serif" font-size="14.00">性別(S)</text>
</g>
<!-- 性別(S)&#45;&gt;教育水準(E) -->
<g id="edge2" class="edge">
<title>性別(S)&#45;&gt;教育水準(E)</title>
<path fill="none" stroke="black" d="M139.46,-216.41C133.33,-207.99 125.74,-197.58 118.91,-188.2"/>
<polygon fill="black" stroke="black" points="121.62,-185.98 112.9,-179.96 115.96,-190.1 121.62,-185.98"/>
</g>
<!-- 交通手段(T) -->
<g id="node6" class="node">
<title>交通手段(T)</title>
<ellipse fill="none" stroke="black" cx="100.55" cy="-18" rx="60.39" ry="18"/>
<text text-anchor="middle" x="100.55" y="-14.3" font-family="Times,serif" font-size="14.00">交通手段(T)</text>
</g>
<!-- 職業(O)&#45;&gt;交通手段(T) -->
<g id="edge5" class="edge">
<title>職業(O)&#45;&gt;交通手段(T)</title>
<path fill="none" stroke="black" d="M56.77,-72.76C63.86,-64.06 72.74,-53.15 80.65,-43.43"/>
<polygon fill="black" stroke="black" points="83.4,-45.6 87,-35.63 77.97,-41.18 83.4,-45.6"/>
</g>
<!-- 居住地(R)&#45;&gt;交通手段(T) -->
<g id="edge6" class="edge">
<title>居住地(R)&#45;&gt;交通手段(T)</title>
<path fill="none" stroke="black" d="M144.04,-72.41C137.11,-63.91 128.54,-53.37 120.83,-43.91"/>
<polygon fill="black" stroke="black" points="123.38,-41.5 114.35,-35.96 117.95,-45.92 123.38,-41.5"/>
</g>
</g>
</svg>
